<svg xmlns="http://www.w3.org/2000/svg" width="64" height="64" viewBox="0 0 64 64" role="img" aria-label="NXT Speaker">
  <rect width="64" height="64" rx="10" ry="10" fill="#031E57"></rect>
  <g transform="translate(11.52 16.11) scale(0.13699)">
    <path d="M87 6L188 103L230 81L234 81L292 111L290 113L126 156L126 158L144 166L145 168L235 213L235 215L204 232L168 232L111 161L78 170L64 167L172 112L171 109L159 103L155 103L137 112L62 153L6 181L6 133L143 96L142 94L53 49L87 7Z" fill="#FFFFFF" fill-rule="evenodd"></path>
  </g>
</svg>